#!OML:ASF E:\inclinewalkrobotboard\Project 1\Capture day 1\Session 1\subject1.ASF
:FULLY-SPECIFIED
:DEGREES
381
root 8.80017 16.5388 6.65512 -173.91 -0.830343 182.442
lowerback -4.60055 6.75245 -5.4471
upperback 1.30579 9.30563 0.937156
thorax 2.89716 4.52724 4.55052
lowerneck -1.1611 18.852 3.35407
upperneck 6.55727 25.3363 -4.43724
head 3.4133 12.5193 -0.904584
rclavicle 1.19395e-014 1.88845e-015
rhumerus -54.1518 -32.3525 -60.2353
rradius 31.4956
rwrist 19.0284
rhand -18.8273 -42.9597
rfingers 7.12502
rthumb 7.47186 -72.8077
lclavicle 1.19395e-014 1.88845e-015
lhumerus -22.814 -9.58102 88.6409
lradius 18.2946
lwrist -21.9621
lhand -27.0721 -19.9843
lfingers 7.12502
lthumb -0.489726 9.99488
rfemur -18.2221 -6.31714 13.4914
rtibia 57.3922
rfoot -9.24818 -10.4898
rtoes -19.1741
lfemur -13.3342 -5.79727 -22.015
ltibia 18.3675
lfoot -15.9352 6.16163
ltoes -47.42
382
root 8.82125 16.5365 6.69945 -173.733 -1.05648 182.379
lowerback -4.74026 6.93486 -5.48643
upperback 1.27502 9.56047 0.880634
thorax 2.91793 4.65363 4.53922
lowerneck -0.824671 19.0311 3.44526
upperneck 6.27114 25.5918 -4.79923
head 3.33606 12.6494 -1.04995
rclavicle -7.15625e-015 -7.35503e-015
rhumerus -54.258 -32.385 -60.0316
rradius 31.2374
rwrist 19.3367
rhand -18.3968 -42.8418
rfingers 7.12502
rthumb 7.88738 -72.6746
lclavicle -7.15625e-015 -7.35503e-015
lhumerus -22.6672 -9.40438 88.5038
lradius 18.405
lwrist -22.0474
lhand -27.4375 -20.3066
lfingers 7.12502
lthumb -0.842621 9.67146
rfemur -17.9022 -6.50372 13.6203
rtibia 58.2021
rfoot -8.85778 -10.3233
rtoes -18.6432
lfemur -13.7425 -5.84369 -21.9642
ltibia 18.3438
lfoot -15.6462 6.2047
ltoes -48.2776
383
root 8.84437 16.5373 6.74636 -173.658 -1.29315 182.259
lowerback -4.68189 7.12897 -5.54746
upperback 1.20473 9.82038 0.777656
thorax 2.79115 4.78905 4.46027
lowerneck -0.748603 19.212 3.41925
upperneck 6.2141 25.8435 -4.95597
head 3.33598 12.771 -1.08539
rclavicle -7.62836e-015 -4.57205e-015
rhumerus -54.4998 -32.4079 -59.8432
rradius 31.0984
rwrist 19.6734
rhand -18.7498 -42.3662
rfingers 7.12502
rthumb 7.54661 -72.2115
lclavicle -7.62836e-015 -4.57205e-015
lhumerus -22.5208 -9.53004 88.4202
lradius 18.3795
lwrist -21.7466
lhand -28.2112 -20.7178
lfingers 7.12502
lthumb -1.58992 9.25604
rfemur -17.4183 -6.65617 13.7044
rtibia 58.889
rfoot -8.36088 -10.0967
rtoes -19.7532
lfemur -14.0216 -5.90186 -21.9769
ltibia 18.2962
lfoot -15.3843 6.13684
ltoes -48.5521
384
root 8.86857 16.5394 6.79575 -173.612 -1.57495 182.053
lowerback -4.53997 7.34456 -5.59382
upperback 1.11874 10.1043 0.567798
thorax 2.62114 4.93866 4.2515
lowerneck -0.129026 19.06 3.73586
upperneck 5.71637 25.6423 -5.32032
head 3.14915 12.6921 -1.32754
rclavicle -5.79457e-014 9.64106e-015
rhumerus -54.8485 -32.7111 -59.5859
rradius 30.8631
rwrist 20.2691
rhand -19.3408 -41.7511
rfingers 7.12502
rthumb 6.97614 -71.6161
lclavicle -5.79457e-014 9.64106e-015
lhumerus -22.5069 -10.4449 88.4137
lradius 18.6259
lwrist -20.8069
lhand -28.5797 -20.5814
lfingers 7.12502
lthumb -1.94576 9.38945
rfemur -16.861 -6.86261 13.6849
rtibia 59.4922
rfoot -7.8593 -9.7806
rtoes -20.7324
lfemur -14.21 -6.01418 -22.0985
ltibia 18.1761
lfoot -15.1422 5.9698
ltoes -48.2936
385
root 8.89344 16.5401 6.84113 -173.517 -1.91746 182.019
lowerback -4.58082 7.53228 -5.49138
upperback 1.06605 10.3529 0.414468
thorax 2.60822 5.06603 4.05155
lowerneck -0.347262 19.1648 3.68758
upperneck 5.89216 25.7907 -5.36045
head 3.25524 12.754 -1.28969
rclavicle 1.36267e-013 -3.18055e-015
rhumerus -54.9809 -33.069 -59.3559
rradius 30.4573
rwrist 20.8692
rhand -19.021 -42.1155
rfingers 7.12502
rthumb 7.2849 -71.9701
lclavicle 1.36267e-013 -3.18055e-015
lhumerus -22.5951 -11.1518 88.326
lradius 19.0053
lwrist -20.2344
lhand -28.4562 -20.2683
lfingers 7.12502
lthumb -1.82651 9.70359
rfemur -16.3192 -7.15098 13.8679
rtibia 60.0117
rfoot -7.41432 -9.51731
rtoes -20.9819
lfemur -14.4343 -6.11331 -22.0154
ltibia 18.0137
lfoot -14.8971 5.80459
ltoes -48.2971
386
root 8.91948 16.5404 6.88529 -173.403 -2.26586 182.066
lowerback -4.73382 7.66042 -5.38744
upperback 1.03503 10.5275 0.356088
thorax 2.67217 5.15299 3.96453
lowerneck -0.209755 19.1974 3.69892
upperneck 5.88111 25.8375 -5.4263
head 3.24241 12.778 -1.32134
rclavicle 2.52457e-014 -5.76476e-015
rhumerus -54.9068 -33.1017 -59.3302
rradius 30.2549
rwrist 21.0183
rhand -18.4974 -42.4831
rfingers 7.12502
rthumb 7.79024 -72.3196
lclavicle 2.52457e-014 -5.76476e-015
lhumerus -22.6694 -11.2206 88.1665
lradius 19.1279
lwrist -20.1702
lhand -28.5133 -20.1205
lfingers 7.12502
lthumb -1.88165 9.851
rfemur -15.7939 -7.34495 14.1802
rtibia 60.375
rfoot -7.09212 -9.35248
rtoes -20.7753
lfemur -14.7253 -6.13734 -21.8254
ltibia 17.8941
lfoot -14.6239 5.69334
ltoes -48.7999
